<svg width="30" height="30" viewBox="0 0 30 30" fill="none" xmlns="http://www.w3.org/2000/svg">
<rect width="30" height="30" rx="8" fill="#EE544A"/>
<g clip-path="url(#clip0_704_6651)">
<path d="M14.0303 10.008C13.9325 9.36343 13.7345 8.71099 13.4462 8.07349C11.949 8.28401 10.5939 8.93643 9.51672 9.89484L13.238 13.6162C13.9651 12.6915 14.2461 11.4286 14.0303 10.008Z" fill="white"/>
<path d="M13.2419 14.8621C12.3531 15.5959 11.2097 15.9793 9.92497 15.9793C9.58459 15.9793 9.23444 15.9524 8.87637 15.8981C8.25083 15.803 7.62027 15.6248 7.00146 15.3706C7.00079 15.4132 6.99988 15.4558 6.99988 15.4986C6.99988 17.4115 7.71645 19.1568 8.89527 20.4817L13.8784 15.4986L13.2419 14.8621Z" fill="white"/>
<path d="M12.6167 14.2362L8.89533 10.5149C7.93691 11.5921 7.2845 12.9472 7.07397 14.4444C7.7115 14.7327 8.36397 14.9307 9.00842 15.0285C10.4291 15.2443 11.692 14.9632 12.6167 14.2362Z" fill="white"/>
<path d="M19.9914 15.9685C18.5707 15.7527 17.3078 16.0338 16.3832 16.7609L20.1045 20.4822C21.0629 19.405 21.7153 18.0499 21.9259 16.5527C21.2884 16.2644 20.6359 16.0664 19.9914 15.9685Z" fill="white"/>
<path d="M15.1362 16.7572L14.4999 16.1208L9.51672 21.104C10.8416 22.2828 12.5869 22.9994 14.4999 22.9994C14.5427 22.9994 14.5853 22.9985 14.6279 22.9978C14.3736 22.379 14.1954 21.7484 14.1004 21.1229C13.8408 19.4133 14.208 17.8814 15.1362 16.7572Z" fill="white"/>
<path d="M13.8634 14.2409L14.4998 14.8773L19.4829 9.89417C18.158 8.71532 16.4127 7.99878 14.4998 7.99878C14.457 7.99878 14.4144 7.99969 14.3718 8.00039C14.626 8.61917 14.8042 9.24967 14.8993 9.8753C15.1588 11.5848 14.7916 13.1167 13.8634 14.2409Z" fill="white"/>
<path d="M14.9691 20.9903C15.067 21.6347 15.265 22.2872 15.5533 22.9248C17.0505 22.7142 18.4056 22.0618 19.4827 21.1034L15.7614 17.3821C15.0344 18.3067 14.7534 19.5696 14.9691 20.9903Z" fill="white"/>
<path d="M15.758 16.1344C16.8821 15.2062 18.4141 14.839 20.1236 15.0986C20.7492 15.1936 21.3797 15.3719 21.9985 15.6261C21.9992 15.5835 22.0001 15.5409 22.0001 15.498C22.0001 13.5851 21.2835 11.8398 20.1047 10.5149L15.1216 15.4981L15.758 16.1344Z" fill="white"/>
</g>
<defs>
<clipPath id="clip0_704_6651">
<rect width="15" height="15" fill="white" transform="translate(7 8)"/>
</clipPath>
</defs>
</svg>
